<svg xmlns="http://www.w3.org/2000/svg" viewBox="0 0 12 12" width="128" height="128">
<rect x="0" y="0" width="12" height="12" rx="2" fill="#3E3C37"/>
<rect x="5" y="0" width="1" height="1" fill="#6D6860"/>
<rect x="6" y="0" width="1" height="1" fill="#6D6860"/>
<rect x="5" y="1" width="1" height="1" fill="#6D6860"/>
<rect x="6" y="1" width="1" height="1" fill="#6D6860"/>
<rect x="2" y="2" width="8" height="2" fill="#908B81"/>
<rect x="2" y="4" width="1" height="2" fill="#908B81"/>
<rect x="3" y="4" width="1" height="2" fill="#262522"/>
<rect x="4" y="4" width="4" height="2" fill="#908B81"/>
<rect x="8" y="4" width="1" height="2" fill="#262522"/>
<rect x="9" y="4" width="1" height="2" fill="#908B81"/>
<rect x="0" y="6" width="12" height="2" fill="#908B81"/>
<rect x="2" y="8" width="8" height="2" fill="#908B81"/>
<rect x="2" y="10" width="1" height="2" fill="#908B81"/>
<rect x="4" y="10" width="1" height="2" fill="#908B81"/>
<rect x="7" y="10" width="1" height="2" fill="#908B81"/>
<rect x="9" y="10" width="1" height="2" fill="#908B81"/>
</svg>
